# xmcd
#
# Track frame offsets:
#	150
#	12882
#	20609
#	33112
#	34252
#	35215
#	47473
#	49267
#	56592
#	68492
#	78762
#	80031
#	82078
#	83069
#	93464
#	103273
#	112702
#	114132
#	114819
#	123774
#	133305
#	148379
#	149582
#	162379
#	181424
#	185604
#	194647
#	210708
#	220098
#	229067
#	239076
#	248883
#	261235
#	271462
#	284281
#
# Disc length: 4440 seconds
#
# Revision: 0
# Processed by: cddbd v1.5.2PL0 Copyright (c) Steve Scherf et al.
# Submitted via: EasyCDDAExtractor 12.0.1.1
#
DISCID=01115623
DTITLE=Johnny Cash - Complete Recording Sessions [Cd 08] 1960 Sessions
DYEAR=2005
DGENRE=Country
TTITLE0=The Girl In Saskatoon (Take 1)
TTITLE1=The Girl In Saskatoon (Take 2)
TTITLE2=The Girl In Saskatoon (Take 3)
TTITLE3=The Girl In Saskatoon (Take 4)
TTITLE4=The Girl In Saskatoon (Take 5)
TTITLE5=The Girl In Saskatoon (Take 6)
TTITLE6=The Girl In Saskatoon (Take 7)
TTITLE7=The Girl In Saskatoon (Take 8)
TTITLE8=The Girl In Saskatoon (Take 9)
TTITLE9=An Empty Chair
TTITLE10=An Empty Chair
TTITLE11=An Empty Chair
TTITLE12=An Empty Chair
TTITLE13=An Empty Chair
TTITLE14=Relief Is Just A Swallow Away
TTITLE15=Relief Is Just A Swallow Away
TTITLE16=Relief Is Just A Swallow Away
TTITLE17=Relief Is Just A Swallow Away
TTITLE18=Relief Is Just A Swallow Away
TTITLE19=Relief Is Just A Swallow Away
TTITLE20=Riot In Cell Block #9
TTITLE21=Riot In Cell Block #9
TTITLE22=Riot In Cell Block #9
TTITLE23=It's A Sin To Tell A Lie
TTITLE24=Rocket '69
TTITLE25=Rocket '69
TTITLE26=Blueberry Hill
TTITLE27=Five Minutes To Live
TTITLE28=The Losing Kind
TTITLE29=Five Minutes To Live
TTITLE30=Blues For Two (Instrumental)
TTITLE31=Jeri And Nina's Melody (Instr)
TTITLE32=The Girl In Saskatoon
TTITLE33=Locomotive Man
TTITLE34=A Day In The Grand Canyon
EXTD=
EXTT0=
EXTT1=
EXTT2=
EXTT3=
EXTT4=
EXTT5=
EXTT6=
EXTT7=
EXTT8=
EXTT9=
EXTT10=
EXTT11=
EXTT12=
EXTT13=
EXTT14=
EXTT15=
EXTT16=
EXTT17=
EXTT18=
EXTT19=
EXTT20=
EXTT21=
EXTT22=
EXTT23=
EXTT24=
EXTT25=
EXTT26=
EXTT27=
EXTT28=
EXTT29=
EXTT30=
EXTT31=
EXTT32=
EXTT33=
EXTT34=
PLAYORDER=
